<?xml version="1.0" encoding="utf-8"?>
<svg version="1.1" xmlns:xlink="http://www.w3.org/1999/xlink" width="12px" height="12px" viewBox="47 960  12 12" xmlns="http://www.w3.org/2000/svg">
  <path d="M 53 960  C 56.36 960  59 962.64  59 966  C 59 969.36  56.36 972  53 972  C 49.64 972  47 969.36  47 966  C 47 962.64  49.64 960  53 960  Z " fill-rule="nonzero" fill="#ffffff" stroke="none" />
  <path d="M 53 960.5  C 56.08 960.5  58.5 962.92  58.5 966  C 58.5 969.08  56.08 971.5  53 971.5  C 49.92 971.5  47.5 969.08  47.5 966  C 47.5 962.92  49.92 960.5  53 960.5  Z " stroke-width="1" stroke="#797979" fill="none" />
  <path d="M 53 969  C 51.32 969  50 967.68  50 966  C 50 964.32  51.32 963  53 963  C 54.68 963  56 964.32  56 966  C 56 967.68  54.68 969  53 969  " fill-rule="nonzero" fill="#797979" stroke="none" />
</svg>