<?xml version="1.0" encoding="utf-8"?>
<svg version="1.1" xmlns:xlink="http://www.w3.org/1999/xlink" width="13px" height="15px" xmlns="http://www.w3.org/2000/svg">
  <g transform="matrix(1 0 0 1 -153 -165 )">
    <path d="M 159.5 165  C 163.14 165  166 168.3  166 172.5  C 166 176.7  163.14 180  159.5 180  C 155.86 180  153 176.7  153 172.5  C 153 168.3  155.86 165  159.5 165  Z " fill-rule="nonzero" fill="#ffffff" stroke="none" />
    <path d="M 159.5 165.5  C 162.86 165.5  165.5 168.58  165.5 172.5  C 165.5 176.42  162.86 179.5  159.5 179.5  C 156.14 179.5  153.5 176.42  153.5 172.5  C 153.5 168.58  156.14 165.5  159.5 165.5  Z " stroke-width="1" stroke="#797979" fill="none" />
  </g>
</svg>